<mxfile host="app.diagrams.net" modified="2024-02-10T22:26:55.317Z" agent="Mozilla/5.0 (Windows NT 10.0; Win64; x64) AppleWebKit/537.36 (KHTML, like Gecko) Chrome/121.0.0.0 Safari/537.36" etag="wMWDPkB4dQluolhjQsL7" version="23.1.2" type="device">
  <diagram name="Página-1" id="HoSRhgpWGWH-SksFVvC6">
    <mxGraphModel dx="3827" dy="1591" grid="1" gridSize="10" guides="1" tooltips="1" connect="1" arrows="1" fold="1" page="1" pageScale="1" pageWidth="827" pageHeight="1169" math="0" shadow="0">
      <root>
        <mxCell id="0" />
        <mxCell id="1" parent="0" />
        <mxCell id="t5-hLi852e9CavP05G1A-4" style="edgeStyle=orthogonalEdgeStyle;rounded=0;orthogonalLoop=1;jettySize=auto;html=1;exitX=0.5;exitY=1;exitDx=0;exitDy=0;" edge="1" parent="1" source="t5-hLi852e9CavP05G1A-1" target="t5-hLi852e9CavP05G1A-2">
          <mxGeometry relative="1" as="geometry" />
        </mxCell>
        <mxCell id="t5-hLi852e9CavP05G1A-5" style="edgeStyle=orthogonalEdgeStyle;rounded=0;orthogonalLoop=1;jettySize=auto;html=1;exitX=0.5;exitY=1;exitDx=0;exitDy=0;entryX=0.5;entryY=0;entryDx=0;entryDy=0;" edge="1" parent="1" source="t5-hLi852e9CavP05G1A-1" target="t5-hLi852e9CavP05G1A-3">
          <mxGeometry relative="1" as="geometry" />
        </mxCell>
        <mxCell id="t5-hLi852e9CavP05G1A-7" style="edgeStyle=orthogonalEdgeStyle;rounded=0;orthogonalLoop=1;jettySize=auto;html=1;exitX=0.5;exitY=1;exitDx=0;exitDy=0;" edge="1" parent="1" source="t5-hLi852e9CavP05G1A-1" target="t5-hLi852e9CavP05G1A-6">
          <mxGeometry relative="1" as="geometry" />
        </mxCell>
        <mxCell id="t5-hLi852e9CavP05G1A-1" value="WEB" style="rounded=0;whiteSpace=wrap;html=1;" vertex="1" parent="1">
          <mxGeometry x="560" y="30" width="120" height="60" as="geometry" />
        </mxCell>
        <mxCell id="t5-hLi852e9CavP05G1A-15" style="edgeStyle=orthogonalEdgeStyle;rounded=0;orthogonalLoop=1;jettySize=auto;html=1;exitX=0.5;exitY=1;exitDx=0;exitDy=0;entryX=0.5;entryY=0;entryDx=0;entryDy=0;" edge="1" parent="1" source="t5-hLi852e9CavP05G1A-2" target="t5-hLi852e9CavP05G1A-14">
          <mxGeometry relative="1" as="geometry" />
        </mxCell>
        <mxCell id="t5-hLi852e9CavP05G1A-18" style="edgeStyle=orthogonalEdgeStyle;rounded=0;orthogonalLoop=1;jettySize=auto;html=1;exitX=0.5;exitY=1;exitDx=0;exitDy=0;entryX=0.5;entryY=0;entryDx=0;entryDy=0;" edge="1" parent="1" source="t5-hLi852e9CavP05G1A-2" target="t5-hLi852e9CavP05G1A-17">
          <mxGeometry relative="1" as="geometry" />
        </mxCell>
        <mxCell id="t5-hLi852e9CavP05G1A-21" style="edgeStyle=orthogonalEdgeStyle;rounded=0;orthogonalLoop=1;jettySize=auto;html=1;exitX=0.5;exitY=1;exitDx=0;exitDy=0;entryX=0.5;entryY=0;entryDx=0;entryDy=0;" edge="1" parent="1" source="t5-hLi852e9CavP05G1A-2" target="t5-hLi852e9CavP05G1A-20">
          <mxGeometry relative="1" as="geometry" />
        </mxCell>
        <mxCell id="t5-hLi852e9CavP05G1A-2" value="Barra de navegación" style="rounded=0;whiteSpace=wrap;html=1;" vertex="1" parent="1">
          <mxGeometry x="-100" y="180" width="120" height="60" as="geometry" />
        </mxCell>
        <mxCell id="t5-hLi852e9CavP05G1A-47" style="edgeStyle=orthogonalEdgeStyle;rounded=0;orthogonalLoop=1;jettySize=auto;html=1;exitX=0.5;exitY=1;exitDx=0;exitDy=0;entryX=0.5;entryY=0;entryDx=0;entryDy=0;" edge="1" parent="1" source="t5-hLi852e9CavP05G1A-3" target="t5-hLi852e9CavP05G1A-45">
          <mxGeometry relative="1" as="geometry" />
        </mxCell>
        <mxCell id="t5-hLi852e9CavP05G1A-48" style="edgeStyle=orthogonalEdgeStyle;rounded=0;orthogonalLoop=1;jettySize=auto;html=1;exitX=0.5;exitY=1;exitDx=0;exitDy=0;entryX=0.5;entryY=0;entryDx=0;entryDy=0;" edge="1" parent="1" source="t5-hLi852e9CavP05G1A-3" target="t5-hLi852e9CavP05G1A-46">
          <mxGeometry relative="1" as="geometry" />
        </mxCell>
        <mxCell id="t5-hLi852e9CavP05G1A-3" value="Contenido" style="rounded=0;whiteSpace=wrap;html=1;" vertex="1" parent="1">
          <mxGeometry x="700" y="180" width="120" height="60" as="geometry" />
        </mxCell>
        <mxCell id="t5-hLi852e9CavP05G1A-63" style="edgeStyle=orthogonalEdgeStyle;rounded=0;orthogonalLoop=1;jettySize=auto;html=1;exitX=0.5;exitY=1;exitDx=0;exitDy=0;entryX=0;entryY=0.5;entryDx=0;entryDy=0;" edge="1" parent="1" source="t5-hLi852e9CavP05G1A-6" target="t5-hLi852e9CavP05G1A-59">
          <mxGeometry relative="1" as="geometry" />
        </mxCell>
        <mxCell id="t5-hLi852e9CavP05G1A-64" style="edgeStyle=orthogonalEdgeStyle;rounded=0;orthogonalLoop=1;jettySize=auto;html=1;exitX=0.5;exitY=1;exitDx=0;exitDy=0;entryX=0;entryY=0.5;entryDx=0;entryDy=0;" edge="1" parent="1" source="t5-hLi852e9CavP05G1A-6" target="t5-hLi852e9CavP05G1A-60">
          <mxGeometry relative="1" as="geometry" />
        </mxCell>
        <mxCell id="t5-hLi852e9CavP05G1A-65" style="edgeStyle=orthogonalEdgeStyle;rounded=0;orthogonalLoop=1;jettySize=auto;html=1;exitX=0.5;exitY=1;exitDx=0;exitDy=0;entryX=0;entryY=0.5;entryDx=0;entryDy=0;" edge="1" parent="1" source="t5-hLi852e9CavP05G1A-6" target="t5-hLi852e9CavP05G1A-61">
          <mxGeometry relative="1" as="geometry" />
        </mxCell>
        <mxCell id="t5-hLi852e9CavP05G1A-66" style="edgeStyle=orthogonalEdgeStyle;rounded=0;orthogonalLoop=1;jettySize=auto;html=1;exitX=0.5;exitY=1;exitDx=0;exitDy=0;entryX=0;entryY=0.5;entryDx=0;entryDy=0;" edge="1" parent="1" source="t5-hLi852e9CavP05G1A-6" target="t5-hLi852e9CavP05G1A-62">
          <mxGeometry relative="1" as="geometry" />
        </mxCell>
        <mxCell id="t5-hLi852e9CavP05G1A-6" value="Links Inferiores" style="rounded=0;whiteSpace=wrap;html=1;" vertex="1" parent="1">
          <mxGeometry x="1170" y="180" width="120" height="60" as="geometry" />
        </mxCell>
        <mxCell id="t5-hLi852e9CavP05G1A-8" value="CodePen Logo" style="rounded=0;whiteSpace=wrap;html=1;" vertex="1" parent="1">
          <mxGeometry x="-320" y="420" width="120" height="60" as="geometry" />
        </mxCell>
        <mxCell id="t5-hLi852e9CavP05G1A-30" style="edgeStyle=orthogonalEdgeStyle;rounded=0;orthogonalLoop=1;jettySize=auto;html=1;exitX=0.5;exitY=1;exitDx=0;exitDy=0;entryX=1;entryY=0.5;entryDx=0;entryDy=0;" edge="1" parent="1" source="t5-hLi852e9CavP05G1A-10" target="t5-hLi852e9CavP05G1A-22">
          <mxGeometry relative="1" as="geometry" />
        </mxCell>
        <mxCell id="t5-hLi852e9CavP05G1A-31" style="edgeStyle=orthogonalEdgeStyle;rounded=0;orthogonalLoop=1;jettySize=auto;html=1;exitX=0.5;exitY=1;exitDx=0;exitDy=0;entryX=1;entryY=0.5;entryDx=0;entryDy=0;" edge="1" parent="1" source="t5-hLi852e9CavP05G1A-10" target="t5-hLi852e9CavP05G1A-24">
          <mxGeometry relative="1" as="geometry" />
        </mxCell>
        <mxCell id="t5-hLi852e9CavP05G1A-32" style="edgeStyle=orthogonalEdgeStyle;rounded=0;orthogonalLoop=1;jettySize=auto;html=1;exitX=0.5;exitY=1;exitDx=0;exitDy=0;entryX=1;entryY=0.5;entryDx=0;entryDy=0;" edge="1" parent="1" source="t5-hLi852e9CavP05G1A-10" target="t5-hLi852e9CavP05G1A-26">
          <mxGeometry relative="1" as="geometry" />
        </mxCell>
        <mxCell id="t5-hLi852e9CavP05G1A-33" style="edgeStyle=orthogonalEdgeStyle;rounded=0;orthogonalLoop=1;jettySize=auto;html=1;exitX=0.5;exitY=1;exitDx=0;exitDy=0;entryX=1;entryY=0.5;entryDx=0;entryDy=0;" edge="1" parent="1" source="t5-hLi852e9CavP05G1A-10" target="t5-hLi852e9CavP05G1A-27">
          <mxGeometry relative="1" as="geometry" />
        </mxCell>
        <mxCell id="t5-hLi852e9CavP05G1A-35" style="edgeStyle=orthogonalEdgeStyle;rounded=0;orthogonalLoop=1;jettySize=auto;html=1;exitX=0.5;exitY=1;exitDx=0;exitDy=0;entryX=0;entryY=0.5;entryDx=0;entryDy=0;" edge="1" parent="1" source="t5-hLi852e9CavP05G1A-10" target="t5-hLi852e9CavP05G1A-34">
          <mxGeometry relative="1" as="geometry" />
        </mxCell>
        <mxCell id="t5-hLi852e9CavP05G1A-10" value="EXPLORE" style="rounded=0;whiteSpace=wrap;html=1;" vertex="1" parent="1">
          <mxGeometry x="-100" y="420" width="120" height="60" as="geometry" />
        </mxCell>
        <mxCell id="t5-hLi852e9CavP05G1A-16" style="edgeStyle=orthogonalEdgeStyle;rounded=0;orthogonalLoop=1;jettySize=auto;html=1;exitX=0.5;exitY=1;exitDx=0;exitDy=0;entryX=0.5;entryY=0;entryDx=0;entryDy=0;" edge="1" parent="1" source="t5-hLi852e9CavP05G1A-14" target="t5-hLi852e9CavP05G1A-8">
          <mxGeometry relative="1" as="geometry" />
        </mxCell>
        <mxCell id="t5-hLi852e9CavP05G1A-14" value="Contenido de la izquierda" style="rounded=0;whiteSpace=wrap;html=1;" vertex="1" parent="1">
          <mxGeometry x="-320" y="310" width="120" height="60" as="geometry" />
        </mxCell>
        <mxCell id="t5-hLi852e9CavP05G1A-19" style="edgeStyle=orthogonalEdgeStyle;rounded=0;orthogonalLoop=1;jettySize=auto;html=1;exitX=0.5;exitY=1;exitDx=0;exitDy=0;entryX=0.5;entryY=0;entryDx=0;entryDy=0;" edge="1" parent="1" source="t5-hLi852e9CavP05G1A-17" target="t5-hLi852e9CavP05G1A-10">
          <mxGeometry relative="1" as="geometry" />
        </mxCell>
        <mxCell id="t5-hLi852e9CavP05G1A-17" value="Contenido del medio" style="rounded=0;whiteSpace=wrap;html=1;" vertex="1" parent="1">
          <mxGeometry x="-100" y="310" width="120" height="60" as="geometry" />
        </mxCell>
        <mxCell id="t5-hLi852e9CavP05G1A-40" style="edgeStyle=orthogonalEdgeStyle;rounded=0;orthogonalLoop=1;jettySize=auto;html=1;exitX=0.5;exitY=1;exitDx=0;exitDy=0;entryX=0;entryY=0.5;entryDx=0;entryDy=0;" edge="1" parent="1" source="t5-hLi852e9CavP05G1A-20" target="t5-hLi852e9CavP05G1A-36">
          <mxGeometry relative="1" as="geometry" />
        </mxCell>
        <mxCell id="t5-hLi852e9CavP05G1A-41" style="edgeStyle=orthogonalEdgeStyle;rounded=0;orthogonalLoop=1;jettySize=auto;html=1;exitX=0.5;exitY=1;exitDx=0;exitDy=0;entryX=0;entryY=0.5;entryDx=0;entryDy=0;" edge="1" parent="1" source="t5-hLi852e9CavP05G1A-20" target="t5-hLi852e9CavP05G1A-37">
          <mxGeometry relative="1" as="geometry" />
        </mxCell>
        <mxCell id="t5-hLi852e9CavP05G1A-42" style="edgeStyle=orthogonalEdgeStyle;rounded=0;orthogonalLoop=1;jettySize=auto;html=1;exitX=0.5;exitY=1;exitDx=0;exitDy=0;entryX=0;entryY=0.5;entryDx=0;entryDy=0;" edge="1" parent="1" source="t5-hLi852e9CavP05G1A-20" target="t5-hLi852e9CavP05G1A-38">
          <mxGeometry relative="1" as="geometry" />
        </mxCell>
        <mxCell id="t5-hLi852e9CavP05G1A-43" style="edgeStyle=orthogonalEdgeStyle;rounded=0;orthogonalLoop=1;jettySize=auto;html=1;exitX=0.5;exitY=1;exitDx=0;exitDy=0;entryX=0;entryY=0.5;entryDx=0;entryDy=0;" edge="1" parent="1" source="t5-hLi852e9CavP05G1A-20" target="t5-hLi852e9CavP05G1A-39">
          <mxGeometry relative="1" as="geometry" />
        </mxCell>
        <mxCell id="t5-hLi852e9CavP05G1A-20" value="Contenido de la derecha" style="rounded=0;whiteSpace=wrap;html=1;" vertex="1" parent="1">
          <mxGeometry x="130" y="310" width="120" height="60" as="geometry" />
        </mxCell>
        <mxCell id="t5-hLi852e9CavP05G1A-22" value="Pens" style="rounded=0;whiteSpace=wrap;html=1;" vertex="1" parent="1">
          <mxGeometry x="-190" y="520" width="120" height="60" as="geometry" />
        </mxCell>
        <mxCell id="t5-hLi852e9CavP05G1A-24" value="Projects" style="rounded=0;whiteSpace=wrap;html=1;" vertex="1" parent="1">
          <mxGeometry x="-190" y="610" width="120" height="60" as="geometry" />
        </mxCell>
        <mxCell id="t5-hLi852e9CavP05G1A-26" value="Posts" style="rounded=0;whiteSpace=wrap;html=1;" vertex="1" parent="1">
          <mxGeometry x="-190" y="700" width="120" height="60" as="geometry" />
        </mxCell>
        <mxCell id="t5-hLi852e9CavP05G1A-27" value="Collections" style="rounded=0;whiteSpace=wrap;html=1;" vertex="1" parent="1">
          <mxGeometry x="-190" y="790" width="120" height="60" as="geometry" />
        </mxCell>
        <mxCell id="t5-hLi852e9CavP05G1A-34" value="Spark" style="rounded=0;whiteSpace=wrap;html=1;" vertex="1" parent="1">
          <mxGeometry x="-10" y="650" width="120" height="60" as="geometry" />
        </mxCell>
        <mxCell id="t5-hLi852e9CavP05G1A-36" value="Create" style="rounded=0;whiteSpace=wrap;html=1;" vertex="1" parent="1">
          <mxGeometry x="230" y="410" width="120" height="60" as="geometry" />
        </mxCell>
        <mxCell id="t5-hLi852e9CavP05G1A-37" value="Search Icon" style="rounded=0;whiteSpace=wrap;html=1;" vertex="1" parent="1">
          <mxGeometry x="230" y="500" width="120" height="60" as="geometry" />
        </mxCell>
        <mxCell id="t5-hLi852e9CavP05G1A-38" value="Log In" style="rounded=0;whiteSpace=wrap;html=1;" vertex="1" parent="1">
          <mxGeometry x="230" y="590" width="120" height="60" as="geometry" />
        </mxCell>
        <mxCell id="t5-hLi852e9CavP05G1A-39" value="Sign Up" style="rounded=0;whiteSpace=wrap;html=1;" vertex="1" parent="1">
          <mxGeometry x="230" y="680" width="120" height="60" as="geometry" />
        </mxCell>
        <mxCell id="t5-hLi852e9CavP05G1A-55" style="edgeStyle=orthogonalEdgeStyle;rounded=0;orthogonalLoop=1;jettySize=auto;html=1;exitX=0.5;exitY=1;exitDx=0;exitDy=0;entryX=0.5;entryY=0;entryDx=0;entryDy=0;" edge="1" parent="1" source="t5-hLi852e9CavP05G1A-45" target="t5-hLi852e9CavP05G1A-53">
          <mxGeometry relative="1" as="geometry" />
        </mxCell>
        <mxCell id="t5-hLi852e9CavP05G1A-45" value="Contenido de la izquierda" style="rounded=0;whiteSpace=wrap;html=1;" vertex="1" parent="1">
          <mxGeometry x="550" y="290" width="120" height="60" as="geometry" />
        </mxCell>
        <mxCell id="t5-hLi852e9CavP05G1A-58" style="edgeStyle=orthogonalEdgeStyle;rounded=0;orthogonalLoop=1;jettySize=auto;html=1;exitX=0.5;exitY=1;exitDx=0;exitDy=0;entryX=0.5;entryY=0;entryDx=0;entryDy=0;" edge="1" parent="1" source="t5-hLi852e9CavP05G1A-46" target="t5-hLi852e9CavP05G1A-57">
          <mxGeometry relative="1" as="geometry" />
        </mxCell>
        <mxCell id="t5-hLi852e9CavP05G1A-46" value="Contenido de la derecha" style="rounded=0;whiteSpace=wrap;html=1;" vertex="1" parent="1">
          <mxGeometry x="850" y="290" width="120" height="60" as="geometry" />
        </mxCell>
        <mxCell id="t5-hLi852e9CavP05G1A-49" value="Sign Up for Free" style="rounded=0;whiteSpace=wrap;html=1;" vertex="1" parent="1">
          <mxGeometry x="650" y="490" width="120" height="60" as="geometry" />
        </mxCell>
        <mxCell id="t5-hLi852e9CavP05G1A-50" value="Learn More" style="rounded=0;whiteSpace=wrap;html=1;" vertex="1" parent="1">
          <mxGeometry x="650" y="585" width="120" height="60" as="geometry" />
        </mxCell>
        <mxCell id="t5-hLi852e9CavP05G1A-54" style="edgeStyle=orthogonalEdgeStyle;rounded=0;orthogonalLoop=1;jettySize=auto;html=1;exitX=0.5;exitY=1;exitDx=0;exitDy=0;entryX=0;entryY=0.5;entryDx=0;entryDy=0;" edge="1" parent="1" source="t5-hLi852e9CavP05G1A-53" target="t5-hLi852e9CavP05G1A-49">
          <mxGeometry relative="1" as="geometry" />
        </mxCell>
        <mxCell id="t5-hLi852e9CavP05G1A-56" style="edgeStyle=orthogonalEdgeStyle;rounded=0;orthogonalLoop=1;jettySize=auto;html=1;exitX=0.5;exitY=1;exitDx=0;exitDy=0;entryX=0;entryY=0.5;entryDx=0;entryDy=0;" edge="1" parent="1" source="t5-hLi852e9CavP05G1A-53" target="t5-hLi852e9CavP05G1A-50">
          <mxGeometry relative="1" as="geometry" />
        </mxCell>
        <mxCell id="t5-hLi852e9CavP05G1A-53" value="Texto" style="rounded=0;whiteSpace=wrap;html=1;" vertex="1" parent="1">
          <mxGeometry x="550" y="390" width="120" height="60" as="geometry" />
        </mxCell>
        <mxCell id="t5-hLi852e9CavP05G1A-57" value="IMG" style="rounded=0;whiteSpace=wrap;html=1;" vertex="1" parent="1">
          <mxGeometry x="850" y="390" width="120" height="60" as="geometry" />
        </mxCell>
        <mxCell id="t5-hLi852e9CavP05G1A-59" value="CodePen for TEAMS" style="rounded=0;whiteSpace=wrap;html=1;" vertex="1" parent="1">
          <mxGeometry x="1260" y="270" width="120" height="60" as="geometry" />
        </mxCell>
        <mxCell id="t5-hLi852e9CavP05G1A-60" value="CodePen for EDUCATION" style="rounded=0;whiteSpace=wrap;html=1;" vertex="1" parent="1">
          <mxGeometry x="1260" y="360" width="120" height="60" as="geometry" />
        </mxCell>
        <mxCell id="t5-hLi852e9CavP05G1A-61" value="CodePen for EDUCATION" style="rounded=0;whiteSpace=wrap;html=1;" vertex="1" parent="1">
          <mxGeometry x="1260" y="450" width="120" height="60" as="geometry" />
        </mxCell>
        <mxCell id="t5-hLi852e9CavP05G1A-62" value="CodePen for WRITING" style="rounded=0;whiteSpace=wrap;html=1;" vertex="1" parent="1">
          <mxGeometry x="1260" y="540" width="120" height="60" as="geometry" />
        </mxCell>
      </root>
    </mxGraphModel>
  </diagram>
</mxfile>
